<svg xmlns="http://www.w3.org/2000/svg" xmlns:xlink="http://www.w3.org/1999/xlink" preserveAspectRatio="xMidYMid" width="300" height="208" viewBox="0 0 300 208">
  <defs>
    <style>
      .cls-1 {
        fill: black;
        fill-rule: evenodd;
      }
    </style>
  </defs>
  <path d="M298.158,181.835 C297.083,187.923 289.604,192.858 281.467,192.858 L280.974,192.858 C280.702,192.858 280.454,193.022 280.416,193.223 L278.008,206.818 C277.943,207.225 277.440,207.552 276.899,207.552 L269.034,207.552 C268.489,207.552 268.107,207.225 268.179,206.818 L270.587,193.223 C270.625,193.022 270.433,192.858 270.160,192.858 L269.668,192.858 C261.524,192.858 255.798,187.923 256.873,181.835 L258.692,171.550 C258.764,171.142 259.260,170.811 259.808,170.811 L267.670,170.811 C268.211,170.811 268.593,171.142 268.521,171.550 L266.701,181.835 C266.347,183.865 268.252,185.508 270.970,185.508 L282.762,185.508 C285.477,185.508 287.971,183.865 288.329,181.835 L290.148,171.550 C290.220,171.142 290.720,170.811 291.264,170.811 L299.122,170.811 C299.670,170.811 300.049,171.142 299.980,171.550 L298.158,181.835 ZM150.489,158.855 C81.831,158.855 26.174,123.297 26.174,79.432 C26.174,35.567 81.831,0.008 150.489,0.008 C219.151,0.008 274.811,35.567 274.811,79.432 C274.811,123.297 219.151,158.855 150.489,158.855 ZM150.489,149.960 C158.598,149.960 166.508,149.450 174.145,148.476 C170.814,143.915 168.255,140.695 166.474,138.824 C162.942,135.118 159.201,132.578 155.250,131.203 C151.295,129.828 145.032,129.141 136.454,129.141 L68.550,129.091 C89.458,141.979 118.451,149.960 150.489,149.960 ZM79.960,48.346 L77.376,50.922 L72.932,50.922 L72.932,49.030 C72.922,48.475 72.488,48.056 71.954,48.056 L69.122,48.056 C68.592,48.056 68.161,48.479 68.147,49.001 L68.147,98.084 C68.161,98.639 68.592,99.058 69.122,99.058 L71.954,99.058 C72.488,99.058 72.915,98.635 72.932,98.114 L72.932,96.195 L77.376,96.195 L79.960,98.770 C80.136,98.944 80.384,99.058 80.652,99.058 L139.375,99.058 C139.913,99.058 140.350,98.623 140.350,98.084 L140.350,97.825 C170.277,96.006 193.172,85.901 193.172,73.608 C193.172,61.316 170.277,51.127 140.350,49.297 L140.350,49.030 C140.350,48.494 139.913,48.056 139.375,48.056 L80.652,48.056 C80.384,48.056 80.136,48.170 79.960,48.346 ZM150.489,8.902 C130.739,8.902 112.143,11.937 95.886,17.283 L131.111,17.283 C186.647,17.283 231.666,42.356 231.666,73.286 C231.666,92.773 213.800,109.841 186.699,119.808 C189.596,120.804 193.275,122.451 195.711,123.872 C203.173,128.231 209.415,132.988 214.448,138.145 C245.460,125.502 265.885,103.926 265.885,79.432 C265.885,40.480 214.221,8.902 150.489,8.902 ZM50.044,181.835 C49.541,184.658 47.667,187.233 44.990,189.182 C46.978,191.132 47.939,193.707 47.443,196.531 L45.624,206.818 C45.552,207.225 45.052,207.552 44.508,207.552 L36.643,207.552 C36.102,207.552 35.719,207.225 35.792,206.818 L37.614,196.531 C37.973,194.501 36.064,192.858 33.346,192.858 L12.800,192.858 C12.532,192.858 12.283,193.022 12.249,193.223 L9.841,206.818 C9.768,207.225 9.272,207.552 8.728,207.552 L0.863,207.552 C0.323,207.552 -0.060,207.225 0.012,206.818 L6.255,171.550 C6.320,171.142 6.823,170.811 7.364,170.811 L37.249,170.811 C45.393,170.811 51.119,175.746 50.044,181.835 ZM14.616,178.160 C14.347,178.160 14.099,178.325 14.061,178.528 L12.890,185.142 C12.852,185.345 13.045,185.508 13.317,185.508 L33.863,185.508 C36.577,185.508 39.068,183.865 39.423,181.835 C39.785,179.806 37.873,178.160 35.161,178.160 L14.616,178.160 ZM61.033,170.811 L97.801,170.811 C98.346,170.811 98.728,171.142 98.656,171.550 L97.612,177.424 C97.540,177.833 97.044,178.160 96.499,178.160 L69.077,178.160 C68.802,178.160 68.554,178.325 68.519,178.528 L67.351,185.142 C67.313,185.345 67.506,185.508 67.775,185.508 L85.958,185.508 C86.502,185.508 86.884,185.838 86.812,186.244 L85.772,192.122 C85.699,192.528 85.203,192.858 84.662,192.858 L66.476,192.858 C66.204,192.858 65.956,193.022 65.918,193.223 L64.750,199.837 C64.716,200.039 64.905,200.204 65.174,200.204 L92.600,200.204 C93.140,200.204 93.523,200.533 93.450,200.939 L92.413,206.818 C92.341,207.225 91.845,207.552 91.301,207.552 L54.536,207.552 C53.992,207.552 53.613,207.225 53.682,206.818 L59.924,171.550 C59.996,171.142 60.492,170.811 61.033,170.811 ZM108.023,170.811 L113.583,170.811 C113.852,170.811 114.079,170.893 114.234,171.024 L128.982,183.725 C129.061,183.795 129.175,183.836 129.309,183.836 C129.468,183.836 129.619,183.779 129.726,183.692 L148.914,171.026 C149.114,170.893 149.373,170.811 149.648,170.811 L155.209,170.811 C155.749,170.811 156.132,171.142 156.059,171.550 L149.817,206.818 C149.745,207.225 149.249,207.552 148.708,207.552 L140.843,207.552 C140.299,207.552 139.916,207.225 139.989,206.818 L143.985,184.241 C144.019,184.039 143.830,183.876 143.554,183.876 C143.427,183.876 143.296,183.916 143.199,183.978 L128.234,193.857 C128.031,193.991 127.773,194.073 127.501,194.073 C127.225,194.073 126.994,193.991 126.839,193.857 L115.381,183.984 C115.305,183.918 115.185,183.876 115.050,183.876 C114.778,183.876 114.530,184.047 114.492,184.251 L110.500,206.818 C110.427,207.225 109.931,207.552 109.387,207.552 L101.522,207.552 C100.981,207.552 100.599,207.225 100.671,206.818 L106.913,171.550 C106.979,171.142 107.482,170.811 108.023,170.811 ZM165.626,170.811 L202.387,170.811 C202.928,170.811 203.311,171.142 203.238,171.550 L202.201,177.424 C202.129,177.833 201.633,178.160 201.089,178.160 L173.667,178.160 C173.391,178.160 173.143,178.325 173.108,178.528 L171.934,185.142 C171.899,185.345 172.089,185.508 172.364,185.508 L190.547,185.508 C191.091,185.508 191.474,185.838 191.401,186.244 L190.361,192.122 C190.289,192.528 189.793,192.858 189.245,192.858 L171.062,192.858 C170.794,192.858 170.546,193.022 170.508,193.223 L169.336,199.837 C169.298,200.039 169.491,200.204 169.763,200.204 L197.189,200.204 C197.730,200.204 198.112,200.533 198.040,200.939 L197.003,206.818 C196.931,207.222 196.434,207.552 195.887,207.552 L159.125,207.552 C158.581,207.552 158.199,207.222 158.271,206.818 L164.513,171.550 C164.582,171.142 165.082,170.811 165.626,170.811 ZM212.612,170.811 L238.167,170.811 C246.311,170.811 252.043,175.746 250.961,181.835 L248.364,196.531 C247.289,202.618 239.810,207.552 231.673,207.552 L206.111,207.552 C205.570,207.552 205.188,207.225 205.260,206.818 L211.496,171.550 C211.568,171.142 212.071,170.811 212.612,170.811 ZM216.753,200.204 L232.968,200.204 C235.686,200.204 238.177,198.559 238.535,196.531 L241.133,181.835 C241.495,179.806 239.583,178.160 236.872,178.160 L220.649,178.160 C220.380,178.160 220.129,178.325 220.091,178.528 L216.322,199.837 C216.288,200.039 216.477,200.204 216.753,200.204 Z" class="cls-1"/>
</svg>
